{"asset":{"version":"2.0","generator":"THREE.GLTFExporter r175"},"scenes":[{"name":"AuxScene","nodes":[12]}],"scene":0,"nodes":[{"mesh":0},{"mesh":1},{"mesh":2},{"mesh":3},{"mesh":4},{"mesh":5},{"mesh":6},{"mesh":7},{"matrix":[0.4714045207910316,0,-0.4714045207910317,0,0,-0.6666666666666666,0,0,0.4714045207910317,0,0.4714045207910316,0,0,0,0,1],"children":[0,1,2,3,4,5,6,7]},{"children":[8]},{"matrix":[1,0,0,0,0,1,0,0,0,0,1,0,-36.29820560325975,50.00006123135487,34.41258763248723,1],"children":[9]},{"children":[10]},{"children":[11]}],"bufferViews":[{"buffer":0,"byteOffset":0,"byteLength":25776,"target":34962,"byteStride":12},{"buffer":0,"byteOffset":25776,"byteLength":17184,"target":34962,"byteStride":8},{"buffer":0,"byteOffset":42960,"byteLength":25776,"target":34962,"byteStride":12},{"buffer":0,"byteOffset":68736,"byteLength":25776,"target":34962,"byteStride":12},{"buffer":0,"byteOffset":94512,"byteLength":17184,"target":34962,"byteStride":8},{"buffer":0,"byteOffset":111696,"byteLength":25776,"target":34962,"byteStride":12},{"buffer":0,"byteOffset":137472,"byteLength":25776,"target":34962,"byteStride":12},{"buffer":0,"byteOffset":163248,"byteLength":17184,"target":34962,"byteStride":8},{"buffer":0,"byteOffset":180432,"byteLength":25776,"target":34962,"byteStride":12},{"buffer":0,"byteOffset":206208,"byteLength":25776,"target":34962,"byteStride":12},{"buffer":0,"byteOffset":231984,"byteLength":17184,"target":34962,"byteStride":8},{"buffer":0,"byteOffset":249168,"byteLength":25776,"target":34962,"byteStride":12},{"buffer":0,"byteOffset":274944,"byteLength":24336,"target":34962,"byteStride":12},{"buffer":0,"byteOffset":299280,"byteLength":16224,"target":34962,"byteStride":8},{"buffer":0,"byteOffset":315504,"byteLength":24336,"target":34962,"byteStride":12},{"buffer":0,"byteOffset":339840,"byteLength":24336,"target":34962,"byteStride":12},{"buffer":0,"byteOffset":364176,"byteLength":16224,"target":34962,"byteStride":8},{"buffer":0,"byteOffset":380400,"byteLength":24336,"target":34962,"byteStride":12},{"buffer":0,"byteOffset":404736,"byteLength":24336,"target":34962,"byteStride":12},{"buffer":0,"byteOffset":429072,"byteLength":16224,"target":34962,"byteStride":8},{"buffer":0,"byteOffset":445296,"byteLength":24336,"target":34962,"byteStride":12},{"buffer":0,"byteOffset":469632,"byteLength":24336,"target":34962,"byteStride":12},{"buffer":0,"byteOffset":493968,"byteLength":16224,"target":34962,"byteStride":8},{"buffer":0,"byteOffset":510192,"byteLength":24336,"target":34962,"byteStride":12}],"buffers":[{"byteLength":534528,"uri":"data:application/octet-stream;base64,"}],"accessors":[{"bufferView":0,"componentType":5126,"count":2148,"max":[70.13719940185547,70.14179992675781,4.599999904632568],"min":[0.03183252736926079,0.03492959961295128,-0.6000000238418579],"type":"VEC3"},{"bufferView":1,"componentType":5126,"count":2148,"max":[69.83719635009766,69.841796875],"min":[0.2574044466018677,-3.5999999046325684],"type":"VEC2"},{"bufferView":2,"componentType":5126,"count":2148,"max":[1,1,1],"min":[-0.9973398447036743,-0.9973397254943848,-1],"type":"VEC3"},{"bufferView":3,"componentType":5126,"count":2148,"max":[149.96841430664062,70.14179992675781,4.599999904632568],"min":[79.85980224609375,0.03176938742399216,-0.6000000238418579],"type":"VEC3"},{"bufferView":4,"componentType":5126,"count":2148,"max":[149.742919921875,69.841796875],"min":[0.257354736328125,-3.5999999046325684],"type":"VEC2"},{"bufferView":5,"componentType":5126,"count":2148,"max":[0.9973514676094055,1,1],"min":[-1,-0.9973390102386475,-1],"type":"VEC3"},{"bufferView":6,"componentType":5126,"count":2148,"max":[70.13719940185547,149.96841430664062,4.599999904632568],"min":[0.03183252736926079,79.86139678955078,-0.6000000238418579],"type":"VEC3"},{"bufferView":7,"componentType":5126,"count":2148,"max":[149.742919921875,149.66561889648438],"min":[0.2574044466018677,-3.5999999046325684],"type":"VEC2"},{"bufferView":8,"componentType":5126,"count":2148,"max":[1,0.9973514080047607,1],"min":[-0.9973397254943848,-1,-1],"type":"VEC3"},{"bufferView":9,"componentType":5126,"count":2148,"max":[149.96841430664062,149.96841430664062,4.599999904632568],"min":[79.85980224609375,79.86139678955078,-0.6000000238418579],"type":"VEC3"},{"bufferView":10,"componentType":5126,"count":2148,"max":[149.742919921875,149.66561889648438],"min":[80.15979766845703,-3.5999999046325684],"type":"VEC2"},{"bufferView":11,"componentType":5126,"count":2148,"max":[0.9973514080047607,0.9973512887954712,1],"min":[-1,-1,-1],"type":"VEC3"},{"bufferView":12,"componentType":5126,"count":2028,"max":[127.58999633789062,56.69839096069336,4.599999904632568],"min":[93.30685424804688,22.413299560546875,-0.6000000238418579],"type":"VEC3"},{"bufferView":13,"componentType":5126,"count":2028,"max":[127.29000091552734,56.3973274230957],"min":[22.738811492919922,-3.5999999046325684],"type":"VEC2"},{"bufferView":14,"componentType":5126,"count":2028,"max":[1,0.9997309446334839,1],"min":[-0.9997064471244812,-1,-1],"type":"VEC3"},{"bufferView":15,"componentType":5126,"count":2028,"max":[56.69329071044922,56.69839096069336,4.599999904632568],"min":[22.409700393676758,22.413299560546875,-0.6000000238418579],"type":"VEC3"},{"bufferView":16,"componentType":5126,"count":2028,"max":[56.39218521118164,56.3973274230957],"min":[22.709699630737305,-3.5999999046325684],"type":"VEC2"},{"bufferView":17,"componentType":5126,"count":2028,"max":[0.9997062087059021,0.9997310042381287,1],"min":[-1,-1,-1],"type":"VEC3"},{"bufferView":18,"componentType":5126,"count":2028,"max":[127.58999633789062,127.58999633789062,4.599999904632568],"min":[93.30368041992188,93.30561065673828,-0.6000000238418579],"type":"VEC3"},{"bufferView":19,"componentType":5126,"count":2028,"max":[127.29000091552734,127.29000091552734],"min":[93.60478973388672,-3.5999999046325684],"type":"VEC2"},{"bufferView":20,"componentType":5126,"count":2028,"max":[1,1,1],"min":[-0.9997051358222961,-0.9997069239616394,-1],"type":"VEC3"},{"bufferView":21,"componentType":5126,"count":2028,"max":[56.696449279785156,127.58999633789062,4.599999904632568],"min":[22.409700393676758,93.30561065673828,-0.6000000238418579],"type":"VEC3"},{"bufferView":22,"componentType":5126,"count":2028,"max":[127.26441955566406,127.29000091552734],"min":[22.709699630737305,-3.5999999046325684],"type":"VEC2"},{"bufferView":23,"componentType":5126,"count":2028,"max":[0.9997064471244812,1,1],"min":[-1,-0.9997068047523499,-1],"type":"VEC3"}],"materials":[{"pbrMetallicRoughness":{"baseColorFactor":[0.6375968739867731,0.6653872982754769,0.7083757798856457,1],"metallicFactor":0,"roughnessFactor":0.3},"doubleSided":true,"extensions":{"KHR_materials_transmission":{"transmissionFactor":1},"KHR_materials_volume":{"thicknessFactor":0,"attenuationColor":[1,1,1]}}}],"meshes":[{"primitives":[{"mode":4,"attributes":{"POSITION":0,"TEXCOORD_0":1,"NORMAL":2},"material":0}]},{"primitives":[{"mode":4,"attributes":{"POSITION":3,"TEXCOORD_0":4,"NORMAL":5},"material":0}]},{"primitives":[{"mode":4,"attributes":{"POSITION":6,"TEXCOORD_0":7,"NORMAL":8},"material":0}]},{"primitives":[{"mode":4,"attributes":{"POSITION":9,"TEXCOORD_0":10,"NORMAL":11},"material":0}]},{"primitives":[{"mode":4,"attributes":{"POSITION":12,"TEXCOORD_0":13,"NORMAL":14},"material":0}]},{"primitives":[{"mode":4,"attributes":{"POSITION":15,"TEXCOORD_0":16,"NORMAL":17},"material":0}]},{"primitives":[{"mode":4,"attributes":{"POSITION":18,"TEXCOORD_0":19,"NORMAL":20},"material":0}]},{"primitives":[{"mode":4,"attributes":{"POSITION":21,"TEXCOORD_0":22,"NORMAL":23},"material":0}]}],"extensionsUsed":["KHR_materials_transmission","KHR_materials_volume"]}