<svg xmlns="http://www.w3.org/2000/svg" viewBox="0 0 32 32" width="32" height="32">
  <rect width="32" height="32" rx="8" fill="#F3CB7A"/>
  <g transform="translate(9.5, 5.5) scale(0.18, 0.18)">
    <path d="M0.0817685 27.6094C0.00372545 77.875 0.0193341 79.4688 0.253463 81.0156C0.706113 84.125 1.42411 86.4375 2.61036 88.6719C4.37413 92.0156 5.68526 93.3594 12.5218 98.8594C13.8173 99.9062 15.3158 101.125 15.8777 101.578C20.7632 105.547 25.4457 109.281 26.273 109.844C29.6601 112.188 31.6268 113.172 34.608 114C37.7297 114.875 37.6361 114.875 54.4778 114.938L70.0395 115V76.9062C70.0395 36.125 70.0551 37.5 69.2747 34.5312C68.6816 32.3125 67.6046 29.9375 66.2466 27.8906C65.2165 26.3438 62.3913 23.7031 58.177 20.3594C55.9918 18.6094 52.7296 16.0156 50.919 14.5781C40.0554 5.89062 37.5892 4.07812 34.9202 2.73438C32.2511 1.39062 29.0826 0.484375 25.8828 0.171875C24.8994 0.0625 19.5613 0 12.194 0H0.112986L0.0817685 27.6094ZM22.5582 18.2188C24.9775 18.5781 26.7569 19.2344 28.7548 20.4688C30.4405 21.5156 43.1927 31.4688 47.7661 35.2969C50.0605 37.2188 51.3248 39.1406 52.0584 41.8438L52.4642 43.3594L52.5267 52.4531C52.5579 57.4688 52.5267 61.5625 52.4799 61.5625C52.4174 61.5625 51.5589 60.9062 50.56 60.1094C47.329 57.5312 39.8993 51.6406 30.7839 44.4531C25.8984 40.5781 21.3719 36.9219 20.732 36.3281C18.7497 34.4688 17.9224 32.8438 17.5946 30.1562C17.5166 29.4375 17.4385 26.3438 17.4385 23.2969V17.7656L19.2804 17.8906C20.2793 17.9375 21.7621 18.0938 22.5582 18.2188ZM19.0306 58C19.7018 58.5469 20.529 59.1875 20.8568 59.4531C21.887 60.25 26.2418 63.7031 27.7402 64.9219C28.2085 65.2969 29.5508 66.375 30.7215 67.2969C31.8765 68.2188 33.3281 69.375 33.9212 69.8594C34.5144 70.3281 36.2001 71.6719 37.6517 72.8281C50.5444 83.0625 50.4663 82.9844 51.4341 84.7969C52.433 86.6875 52.4486 86.7656 52.5111 92.5625L52.5891 97.8594L48.9367 97.7656C46.9388 97.7031 44.6756 97.5781 43.8951 97.4844C41.0544 97.125 38.5882 96.1875 36.0284 94.4531C33.6559 92.875 23.8693 85.0469 21.6997 83.0156C19.733 81.1562 18.5155 79.2031 17.8756 76.9062C17.5634 75.75 17.5478 75.2812 17.4854 66.3594C17.4385 59.125 17.4541 57.0312 17.6102 57.0312C17.7039 57.0312 18.3438 57.4688 19.0306 58Z" fill="black"/>
  </g>
</svg> 