<svg width="150" height="150" viewBox="0 0 150 150" fill="none" xmlns="http://www.w3.org/2000/svg">
<path d="M1.17822 67.7937C-0.0594812 68.0184 0.105129 69.8418 1.36182 69.8418H57.4507C64.2913 69.8418 69.8372 64.2958 69.8372 57.455V1.36494C69.8372 0.108222 68.0139 -0.0563915 67.7891 1.18133L60.3028 42.3998C58.6473 51.5165 51.5123 58.6516 42.3958 60.3072L1.17822 67.7937Z" fill="currentColor"/>
<path d="M148.822 67.7937C150.06 68.0184 149.895 69.8418 148.638 69.8418H92.5463C85.7057 69.8418 80.1598 64.2958 80.1598 57.455V1.36177C80.1598 0.105057 81.9831 -0.0595461 82.2078 1.17818L89.6942 42.3966C91.3497 51.5133 98.4847 58.6485 107.601 60.304L148.822 67.7937Z" fill="currentColor"/>
<path d="M1.17822 82.2095C-0.0594812 81.9848 0.105129 80.1614 1.36182 80.1614H57.4507C64.2913 80.1614 69.8372 85.7074 69.8372 92.5482V148.638C69.8372 149.895 68.0139 150.06 67.7891 148.822L60.3028 107.603C58.6473 98.4867 51.5123 91.3516 42.3958 89.696L1.17822 82.2095Z" fill="currentColor"/>
<path d="M148.822 82.2095C150.06 81.9848 149.895 80.1614 148.638 80.1614H92.5463C85.7057 80.1614 80.1598 85.7074 80.1598 92.5482V148.638C80.1598 149.895 81.9831 150.06 82.2078 148.822L89.6942 107.603C91.3497 98.4867 98.4847 91.3516 107.601 89.696L148.822 82.2095Z" fill="currentColor"/>
<path d="M125.299 55.7393C125.711 56.8093 127.29 56.5244 127.29 55.3753V28.9051C127.29 25.4831 124.517 22.7133 121.099 22.7133H94.6291C93.4832 22.7133 93.1952 24.2929 94.2651 24.7044C108.51 30.1586 119.842 41.4912 125.299 55.7393Z" fill="currentColor"/>
<path d="M24.7008 55.7393C24.2893 56.8093 22.7097 56.5244 22.7097 55.3753V28.9051C22.7097 25.4831 25.4827 22.7133 28.9014 22.7133H55.371C56.5169 22.7133 56.805 24.2929 55.735 24.7044C41.4904 30.1586 30.1581 41.4912 24.7008 55.7393Z" fill="currentColor"/>
<path d="M127.29 94.6279V121.098C127.29 124.52 124.517 127.29 121.099 127.29H94.626C93.4801 127.29 93.192 125.71 94.2619 125.299C108.507 119.841 119.839 108.509 125.296 94.2639C125.708 93.1939 127.29 93.482 127.29 94.6279Z" fill="currentColor"/>
<path d="M22.7097 94.6279V121.098C22.7097 124.52 25.4827 127.29 28.9014 127.29H55.3742C56.5201 127.29 56.8081 125.71 55.7382 125.299C41.4936 119.841 30.1612 108.509 24.704 94.2639C24.2893 93.1939 22.7097 93.482 22.7097 94.6279Z" fill="currentColor"/>
</svg>
